<?xml version="1.0" encoding="UTF-8"?>
<svg width="376px" height="351px" viewBox="0 0 376 351" version="1.1" xmlns="http://www.w3.org/2000/svg" xmlns:xlink="http://www.w3.org/1999/xlink">
    <!-- Generator: Sketch 54 (76480) - https://sketchapp.com -->
    <title>Mask</title>
    <desc>Created with Sketch.</desc>
    <defs>
        <rect id="path-1" x="0" y="0" width="376" height="351"></rect>
    </defs>
    <g id="Page-1" stroke="none" stroke-width="1" fill="none" fill-rule="evenodd">
        <mask id="mask-2" fill="white">
            <use xlink:href="#path-1"></use>
        </mask>
        <g id="Mask"></g>
        <g id="Group-14" mask="url(#mask-2)">
            <g transform="translate(-77.000000, 4.000000)">
                <g id="Background-Shape-2" opacity="0.504510789" stroke-width="1" fill="none" transform="translate(21.463788, 202.326230)">
                    <path d="M409.867274,100.093128 C415.844398,144.8305 270.888967,174.011157 146.122468,153.64668 C21.3559693,133.282203 -35.8809847,53.7566238 23.6555086,11.3822691 C83.1920018,-30.9920856 403.89015,55.3557556 409.867274,100.093128 Z" id="Background-Shape" fill="#F2F2F2"></path>
                </g>
                <path d="M414.731134,98.9096995 C418.00489,97.494698 422.162427,99.5526556 420.168754,103.642421 C418.033255,108.021911 411.002723,107.708942 407.038475,107.412161 C407.436804,107.412161 408.931248,103.37179 409.401706,102.774077 C410.789173,101.010825 412.718416,99.7813636 414.731134,98.9096995 Z M373.758278,177.288674 C372.917178,177.934774 373.689378,177.349774 373.758278,177.288674 Z M416.743195,119.329874 C418.535647,120.855117 418.492631,123.379939 416.877923,125.005833 C414.955206,126.941421 411.642599,126.693666 409.177318,126.366042 C408.062158,126.217715 402.107743,125.42555 403.576361,124.521325 C403.46517,124.556777 403.232236,124.644795 402.981447,124.767858 C402.825211,125.240141 402.662482,125.710387 402.494072,126.178188 C402.52816,126.200601 402.556973,126.224235 402.593495,126.246647 C402.553726,126.22668 402.526131,126.205898 402.491232,126.185931 C400.804289,130.861497 398.520404,135.277898 395.618474,139.369527 C396.641921,139.027234 397.696209,138.782739 398.756584,138.704908 C401.896724,138.473859 408.332021,141.241954 404.624968,145.212559 C401.070499,149.018944 396.085559,144.474183 392.319258,143.686093 C388.366692,148.633456 384.047682,153.346919 379.542406,157.885567 C379.798876,157.980921 380.018824,158.16307 380.136102,158.434867 C381.888785,157.658187 383.732775,156.512319 385.33044,156.259673 C387.635833,155.895783 392.326563,155.847699 393.942895,157.978883 C395.930946,160.599466 393.552102,162.518754 391.022703,162.86879 C387.355014,163.376525 382.694719,161.353326 379.263616,159.97152 C378.860243,160.021234 378.430087,159.881464 378.186197,159.548136 C378.110311,159.518796 378.034425,159.489864 377.960568,159.461747 C373.402537,163.974316 368.687864,168.321851 364.005656,172.570365 C364.053135,172.570365 364.100615,172.569958 364.150123,172.569958 C365.350097,171.869886 366.627173,171.310807 367.993121,171.054494 C371.153145,170.457518 374.824487,170.646187 377.23823,173.036536 C379.64264,175.416699 380.330078,179.395045 377.588442,181.782542 C372.100706,186.561612 365.009218,174.637573 362.399875,174.018593 C357.644216,178.288296 352.644666,182.248306 347.574506,186.119482 C348.134521,185.980528 348.706304,185.886804 349.293507,185.861947 C354.077167,185.655756 364.943477,192.076612 358.801173,197.511743 C353.448571,202.248025 348.061475,192.309697 344.135692,188.727025 C339.360149,192.332517 334.561068,195.910299 329.883324,199.643742 C332.355098,199.12419 334.716086,199.152307 337.288095,200.078944 C339.949381,201.038996 344.205897,203.309543 342.305094,206.871025 C340.371827,210.492816 335.220505,208.528703 332.553132,207.206798 C331.098312,206.485945 328.227629,204.159571 325.655214,203.108242 C318.169687,209.46838 311.602909,216.561598 306.467819,225.053736 C303.261939,230.356025 300.740656,236.068252 298.867043,241.976889 C297.671128,245.74823 295.373039,252.067212 295.504927,257.064289 C294.155211,247.004936 298.166619,235.21863 302.279073,226.506039 C306.060388,218.494334 311.453977,211.569818 317.669326,205.408128 C316.427149,200.895559 304.350315,193.84798 311.986397,190.116166 C316.04082,188.143904 319.887065,191.970664 320.54772,195.844692 C321.001413,198.506839 319.926834,201.765555 318.836429,204.269187 C320.788364,202.393908 322.810097,200.585865 324.88702,198.844243 C327.757298,196.437186 330.689258,194.107553 333.646378,191.810519 C329.214147,187.186705 325.458398,174.435457 331.816185,172.715433 C341.204138,170.184091 335.864928,187.029005 335.053313,190.196035 C334.869887,190.197257 334.73029,190.134503 334.631678,190.010626 C334.668201,190.306465 334.712028,190.623087 334.768436,190.942968 C340.427017,186.570984 346.161078,182.29476 351.7247,177.806233 C351.264515,177.427265 350.574236,176.035272 350.013816,175.284264 C348.748913,173.591133 347.5461,171.828729 346.701614,169.881324 C345.367724,166.803943 344.180331,161.944598 348.225422,160.38757 C352.624782,158.690772 354.383958,164.208625 354.244766,167.438001 C354.148183,169.671466 353.429092,171.760271 352.997719,173.931797 C352.862991,174.609049 353.082939,177.705175 352.222626,176.333149 C352.240888,176.823362 352.228714,177.177065 352.193814,177.42645 C353.192912,176.616356 354.185112,175.796481 355.17163,174.970087 C355.13389,174.857212 355.107918,174.734964 355.107918,174.594787 C355.107918,173.629845 356.095654,173.309964 356.759961,173.6274 C358.063009,172.512909 359.354695,171.382933 360.625684,170.2281 C363.319435,167.781517 366.054173,165.263214 368.773895,162.687456 C368.239853,162.177683 368.497135,161.524066 368.000832,160.986583 C367.505341,160.450324 366.491633,160.114957 365.902401,159.610075 C364.420391,158.339514 363.230563,156.539213 362.393788,154.784959 C361.012419,151.886467 359.346173,145.870659 363.883508,144.761465 C368.560441,143.616004 370.599218,149.429696 370.708786,153.003403 C370.730294,153.695732 369.888649,159.879834 369.375302,162.114522 C374.40894,157.326488 379.373996,152.345303 383.902809,147.25002 C382.614775,147.170559 379.09967,144.338895 378.39884,143.579737 C376.688767,141.728092 374.027481,137.695142 377.294638,135.806008 C380.199408,134.130807 383.523784,136.951876 384.590652,139.580201 C384.765961,140.012958 385.256177,143.981117 385.218031,145.748003 C387.095297,143.585035 388.892213,141.404544 390.572662,139.210605 C391.693097,137.752191 392.747385,136.250174 393.740802,134.711891 C393.528159,134.576196 393.333371,134.348815 393.152787,134.069276 C388.509131,133.028541 382.918725,125.405176 388.555393,123.150114 C391.238998,122.078002 393.949793,124.723441 395.126229,126.834659 C395.367279,127.2666 395.682998,129.391265 395.942714,131.067688 C398.836934,125.950808 401.129747,120.493264 402.951823,114.869871 C402.549262,114.747216 402.220152,114.417555 402.202702,113.879258 C399.995921,112.463222 398.256224,111.289237 396.798968,108.712256 C395.893612,107.111626 394.30244,103.479648 397.246168,102.771834 C401.076992,101.850902 403.144582,107.73672 403.30447,110.590795 C403.323137,110.922086 403.2716,111.880101 403.213163,112.757431 C403.345051,112.746429 403.477344,112.755394 403.605985,112.785141 C404.657433,109.299045 405.536412,105.758345 406.27417,102.204197 C404.250002,101.43363 404.460616,90.6020782 405.91219,89.1342912 C409.157027,85.8474588 411.05783,90.9407043 410.756315,93.5641394 C410.400422,96.657413 408.846179,99.4067631 407.040335,101.824415 C406.846765,102.08032 406.898708,102.070132 406.871519,101.698092 C406.836214,101.879426 406.768038,102.011046 406.672267,102.103954 C406.673079,103.742073 406.753835,105.423386 406.597193,106.864686 C406.14837,110.992175 405.447946,115.130666 404.533661,119.180324 C404.311279,120.165233 404.064548,121.140769 403.794686,122.106526 C405.523426,120.783399 407.820297,119.647718 408.713885,119.301757 C411.033076,118.404866 414.582675,117.491269 416.743195,119.329874 Z M295.238469,257.064289 C295.267932,258.513365 295.459144,259.848772 295.888469,260.96429 C295.588723,259.704139 295.376466,258.399696 295.238469,257.064289 Z" id="Leaf-Bottom" fill="#F3F1F1" transform="translate(357.963472, 174.514285) scale(-1, 1) rotate(-3.000000) translate(-357.963472, -174.514285) "></path>
                <path d="M139.556559,10.7277314 C141.894957,9.71701604 144.864626,11.1869858 143.440574,14.1082467 C141.915217,17.2364537 136.893409,17.0129045 134.061803,16.8009181 C134.346324,16.8009181 135.413784,13.9149389 135.749825,13.4880013 C136.740873,12.2285355 138.118904,11.3503487 139.556559,10.7277314 Z M110.258668,67.6470688 C109.417568,68.2931689 110.189768,67.7081688 110.258668,67.6470688 Z M141.42705,25.720756 C142.735824,26.8236243 142.704416,28.6492648 141.525423,29.8249113 C140.121534,31.2244904 137.702805,31.0453443 135.902758,30.8084471 C135.088515,30.7011951 130.740847,30.1283989 131.813171,29.4745745 C131.731984,29.5002089 131.561905,29.5638529 131.37879,29.6528367 C131.264713,29.994334 131.145895,30.3343581 131.022929,30.6726142 C131.047818,30.6888199 131.068856,30.7059095 131.095523,30.7221151 C131.066485,30.7076774 131.046337,30.6926503 131.020854,30.6782126 C129.789119,34.0590064 128.12152,37.252404 126.00265,40.210967 C126.749929,39.9634624 127.519727,39.7866735 128.293969,39.7303957 C130.586769,39.5633301 135.285557,41.5648756 132.578821,44.435928 C129.983494,47.1882372 126.343696,43.9020254 123.593699,43.3321757 C120.707699,46.9095 117.554135,50.3176961 114.264569,53.5994882 C114.451833,53.6684359 114.61243,53.8001437 114.698062,53.996674 C115.977798,53.4350745 117.324204,52.6065236 118.490752,52.4238417 C120.174055,52.1607209 123.599033,52.1259524 124.779211,53.6669627 C126.230804,55.5618455 124.493871,56.9496387 122.647008,57.2027415 C119.969013,57.5698732 116.566258,56.1069447 114.061008,55.1077925 C113.766482,55.1437396 113.4524,55.0426753 113.274321,54.801653 C113.218912,54.7804383 113.163503,54.7595183 113.109576,54.7391876 C109.78149,58.0021222 106.33903,61.1457242 102.920275,64.2177267 C102.954943,64.2177267 102.98961,64.2174321 103.02576,64.2174321 C103.90193,63.7112264 104.834399,63.306969 105.831758,63.1216353 C108.139077,62.6899756 110.819739,62.8263977 112.582155,64.5548043 C114.337756,66.2758447 114.839695,69.1524954 112.837865,70.8788394 C108.830947,74.3344739 103.653035,65.7124772 101.747801,65.2649066 C98.2754143,68.3522308 94.6249495,71.2156224 90.9229278,74.0147806 C91.3318272,73.9143056 91.7493195,73.8465365 92.1780714,73.8285629 C95.6709025,73.6794709 103.605034,78.3222432 99.120177,82.2522614 C95.2119277,85.6769578 91.2784925,78.490782 88.412048,75.9002347 C84.9251429,78.5072823 81.4210522,81.0942938 78.0055564,83.7938609 C79.8103439,83.4181844 81.5342404,83.4385152 83.4122149,84.1085453 C85.3553763,84.8027365 88.4633086,86.4445165 87.0754208,89.0197421 C85.6638287,91.6385756 81.9025462,90.2183711 79.9549402,89.2625322 C78.8926905,88.7412995 76.7966363,87.0591527 74.9183654,86.2989603 C69.4527425,90.8978299 64.6579517,96.0267718 60.9085214,102.167241 C58.5677201,106.001204 56.7267835,110.131583 55.3587481,114.403982 C54.4855403,117.130952 52.807571,121.700062 52.9038698,125.313333 C51.9183628,118.039647 54.8473275,109.517241 57.8500719,103.217367 C60.6110322,97.4242884 64.5492082,92.4173309 69.0873997,87.9619549 C68.1804133,84.6990203 59.3624073,79.6030791 64.937959,76.9046905 C67.8983319,75.478593 70.7067009,78.2456346 71.1890837,81.0468554 C71.5203516,82.9717924 70.7357387,85.3280943 69.9395699,87.1384131 C71.364792,85.7824419 72.8409783,84.4750877 74.357462,83.2157611 C76.45322,81.475274 78.5940161,79.79077 80.7531831,78.1298379 C77.5169512,74.7864643 74.774658,65.5663317 79.4168522,64.3226215 C86.2715481,62.4922666 82.3730769,74.6724355 81.7804689,76.9624416 C81.6465396,76.9633255 81.544611,76.9179497 81.4726091,76.8283766 C81.4992765,77.0422912 81.5312773,77.2712329 81.5724636,77.5025318 C85.704126,74.3412509 89.8909011,71.2492123 93.9532284,68.0036619 C93.6172197,67.7296391 93.1132067,66.7231207 92.7040109,66.180084 C91.7804314,64.9558206 90.9021865,63.6814669 90.2855779,62.273343 C89.3116268,60.0481595 88.4446414,56.5344793 91.3981993,55.4086284 C94.6104306,54.1817131 95.8949083,58.1715449 95.793276,60.5066322 C95.7227557,62.1215992 95.1977051,63.631966 94.882734,65.2021465 C94.784361,65.6918519 94.9449578,67.9305892 94.3167934,66.9385085 C94.3301271,67.2929704 94.3212379,67.548725 94.2957558,67.7290498 C95.0252562,67.1432891 95.7497194,66.5504568 96.4700343,65.9529102 C96.442478,65.8712926 96.4235146,65.7828982 96.4235146,65.6815392 C96.4235146,64.9838121 97.1447184,64.7525133 97.629768,64.9820443 C98.5812,64.1761813 99.5243356,63.3591218 100.45236,62.5240887 C102.419225,60.7550206 104.416018,58.9340945 106.401847,57.071623 C106.011911,56.7030181 106.199768,56.2304023 105.837388,55.8417613 C105.475601,55.4540042 104.735433,55.2115087 104.3052,54.8464395 C103.223098,53.9277263 102.354335,52.6259704 101.743356,51.3575098 C100.734737,49.2616769 99.5181132,44.9117849 102.831088,44.1097524 C106.245991,43.2814962 107.734622,47.4852426 107.814624,50.0693077 C107.830328,50.569915 107.215794,55.0414967 106.840969,56.6573476 C110.516324,53.1952308 114.141603,49.5934508 117.448355,45.9091692 C116.507886,45.8517128 113.941301,43.8042022 113.429584,43.2552725 C112.180959,41.916391 110.237798,39.0002574 112.623341,37.6342681 C114.744285,36.4229692 117.171607,38.462819 117.95059,40.3633001 C118.078594,40.6762165 118.436529,43.5455011 118.408676,44.8230958 C119.779378,43.259103 121.091412,41.6824403 122.318407,40.0960542 C123.136502,39.0415081 123.9063,37.9554347 124.631652,36.8431376 C124.476389,36.7450198 124.334163,36.580606 124.202308,36.3784773 C120.811701,35.6259457 116.729818,30.1136665 120.84548,28.4830832 C122.804938,27.7078637 124.784249,29.62072 125.643234,31.1472925 C125.819238,31.4596197 126.049763,32.9959156 126.239397,34.2080984 C128.352637,30.5082005 130.026755,26.5619767 131.357159,22.495831 C131.063226,22.4071419 130.822923,22.1687715 130.810182,21.7795411 C129.198881,20.7556385 127.928626,19.9067569 126.864599,18.0434015 C126.203545,16.8860232 125.041737,14.2598235 127.191126,13.7480195 C129.988235,13.0821145 131.497904,17.3380136 131.614648,19.4017299 C131.628278,19.6412789 131.590647,20.3339969 131.547979,20.9683745 C131.644278,20.960419 131.740873,20.9669013 131.834801,20.9884106 C132.602525,18.467695 133.244319,15.9074964 133.783,13.3375745 C132.305036,12.7803947 132.458818,4.9483499 133.518697,3.88702695 C135.887943,1.51039427 137.275831,5.19320258 137.055677,7.09014793 C136.795819,9.3268227 135.660974,11.3148144 134.342422,13.0629623 C134.201085,13.2480014 134.239012,13.2406352 134.219159,12.9716214 C134.193381,13.1027399 134.143602,13.1979112 134.073674,13.265091 C134.074267,14.4495769 134.133231,15.6652956 134.018858,16.7074664 C133.691146,19.6919584 133.179725,22.6844059 132.512152,25.6126201 C132.349778,26.3247848 132.169625,27.0301727 131.972583,27.728489 C133.234838,26.7717662 134.911918,25.9505816 135.564379,25.7004252 C137.257757,25.0519045 139.849527,24.3913031 141.42705,25.720756 Z M52.6480604,125.014977 C52.6775238,125.981028 52.8687357,126.871299 53.2980604,127.614977 C52.9983148,126.774877 52.7860576,125.905249 52.6480604,125.014977 Z" id="Leaf-Top" fill="#9EBFC2" opacity="0.2" transform="translate(98.229932, 65.364152) rotate(-3.000000) translate(-98.229932, -65.364152) "></path>
                <g id="Plant-Right" opacity="0.7" stroke-width="1" fill="none" transform="translate(453.299991, 279.199986) scale(-1, 1) translate(-453.299991, -279.199986) translate(369.299991, 148.699986)">
                    <path d="M137.023498,50.7787826 C122.188719,51.9558068 112.665117,61.7446429 108.231848,75.4360995 C105.842474,82.8145257 105.568607,90.3943209 104.240813,97.9768522 C102.243382,109.384849 97.9456798,118.03004 89.5465208,126.157581 C86.9450501,128.674695 85.0279755,131.259114 83.6651962,134.024108 C80.9598635,136.784725 78.6049284,139.908682 76.8748056,143.728129 C74.6647307,148.605857 74.0393719,154.458146 76.5910982,159.3211 C77.2771343,160.628358 78.9886713,163.252723 80.7625256,164.445068 C74.1213683,178.589058 70.4697977,194.079704 70.8814193,209.55065 C71.1301416,218.889689 71.5860413,228.232558 72.1179242,237.560106 C72.2611445,240.064634 73.0767348,244.200361 74.3017602,240.000065 C75.4229236,236.158183 74.0169596,230.12696 73.8868587,226.113258 C73.2538469,206.560757 72.7126711,188.782821 80.7614323,170.515143 C81.605448,168.600495 82.5003015,166.701168 83.4323266,164.817163 C83.4869909,164.785426 83.5378286,164.747122 83.589213,164.709912 C83.6247447,164.737272 83.6569966,164.766821 83.6925284,164.793634 C83.7521124,164.687477 83.8335621,164.561074 83.9286778,164.419897 C84.1959859,164.144109 84.4294022,163.795544 84.651339,163.406485 C85.3652538,162.41715 86.1731911,161.2549 86.1775643,160.618508 C86.1775643,160.613584 86.1748311,160.605923 86.1748311,160.600998 C91.1574757,152.467438 96.8644213,144.782033 102.693815,137.247108 C102.650083,137.301828 109.016826,128.633108 108.032324,133.427115 C107.557838,135.737387 102.874753,140.136864 100.983371,142.583936 C96.7993709,148.028015 91.8861498,154.926001 87.8032785,161.596352 C87.253903,161.912086 86.4776709,163.4623 85.9162693,164.616889 C85.6063231,165.201844 85.3171493,165.791724 85.0328953,166.305544 C99.4997839,171.085324 110.753509,161.457364 118.427274,150.258944 C118.436567,150.245811 118.444766,150.232131 118.453512,150.218999 C120.788768,147.12459 123.180875,144.05207 126.169369,141.606092 C131.155293,137.524538 136.494895,136.804425 142.373486,134.795658 C158.404865,129.3182 165.220948,108.541616 167.385652,93.1253892 C169.828049,75.7332283 157.881182,49.0638621 137.023498,50.7787826" id="Leaf-Me-Alone!" fill="#89C5CC"></path>
                    <path d="M121.606742,5.38322124 C104.324019,18.9562834 93.9809748,39.6976993 85.3375273,59.3484867 C75.6838197,81.2964494 68.1674846,103.90436 64.6648133,127.641877 C62.363847,143.237558 59.7315011,158.886067 58.4512768,174.606724 C57.9962424,180.189859 57.7686527,185.814825 57.8764586,191.416356 C57.8854844,191.876673 58.1301839,204.384466 60.4097302,201.798262 C61.7061594,200.327549 60.1801052,188.826663 60.2062617,186.950515 C60.3556518,176.383607 61.5212667,165.881395 63.0549109,155.432463 C65.5798496,138.228643 67.4796885,121.026856 71.6359042,104.116853 C72.2560475,101.592036 72.840044,98.9307189 73.8006005,96.5104964 C74.8209094,93.9373287 73.8347815,94.9845685 76.0871683,94.2256914 C78.2757895,93.4877422 80.7816987,93.9892441 83.0837981,93.0012009 C92.2153755,89.081415 98.361756,76.5801754 102.920422,68.4515675 C108.134343,59.1561785 111.936916,48.9970384 115.251458,38.9096685 C117.68577,31.4980821 119.724438,24.0780528 121.359432,16.4542944 C121.874635,14.0515377 122.241727,11.5147803 123.054165,9.19519996 C123.273091,8.56947128 124.077965,7.52124716 124.134716,6.94783809 C124.254746,5.73426339 123.626152,4.9222713 123.709023,3.90000021 C122.998054,4.37929643 122.296624,4.87403561 121.606742,5.38322124" id="Leaf-Me-Alone!" fill="#89C5CC" transform="translate(91.000005, 103.025006) rotate(-8.000000) translate(-91.000005, -103.025006) "></path>
                    <path d="M75.957245,213.351049 L73.450004,213.351049 C73.6239711,210.20536 73.8537513,207.065174 74.3796263,203.954507 C76.3909671,192.057658 82.6799635,174.584298 96.4731868,172.653313 C96.9820407,172.581347 98.853857,172.569261 101.121266,172.702205 C102.195878,172.101759 103.399618,171.738635 104.667923,171.655133 C116.411505,170.789349 129.526256,180.263538 135.190949,190.122827 C139.757502,198.072005 138.988203,208.510314 136.16762,216.955561 C134.278842,222.609531 130.156579,230.670777 123.282127,230.749335 C114.681402,230.84767 114.266658,220.217635 114.100323,214.003323 C113.879273,205.741561 112.835302,198.544451 106.325255,192.913005 C104.807995,191.601143 103.149569,190.446947 101.616988,189.153214 C99.2171677,187.128288 96.5651088,185.05502 96.2559664,181.705048 C95.8291857,177.083318 98.4380194,176.251593 102.421306,177.110236 C103.100325,177.256365 109.940306,180.325616 108.927523,177.89966 C108.61838,177.15858 107.489053,176.571318 106.063715,176.131284 C102.375345,175.730254 97.976768,175.26495 96.7117463,175.542924 C83.0646132,178.536913 77.7511937,197.440795 76.3400817,209.451361 C76.1877898,210.747772 76.064638,212.048411 75.9572449,213.351049 Z" id="Leaf-Me-Alone!" fill="#69A1AC"></path>
                </g>
                <g id="Plant-Left" opacity="0.5" stroke-width="1" fill="none" transform="translate(0.000000, 34.849981)">
                    <path d="M115.844944,72.4389406 C118.576458,68.5441345 123.645366,58.6526056 127.489921,57.2608745 C129.966169,56.3644709 129.244184,65.6370786 129.274764,67.4051615 C129.393852,74.2455955 128.727912,81.0426558 127.905529,87.8256583 C126.423925,100.058775 121.579208,110.953296 114.934321,121.364937 C111.515003,126.72236 107.504414,132.144745 101.949561,135.48752 C99.3926566,137.026935 96.3160586,137.284685 93.790955,138.611016 C90.8501034,140.15504 92.4516854,138.906859 91.1263437,141.971375 C89.2858262,146.226045 88.6971238,151.715023 87.8455453,156.254907 C83.9355143,177.095442 74.4694026,287.263949 76.1104634,308.462758 C76.2562158,310.341727 73.6362346,310.791053 73.5054437,308.497224 C72.8102671,296.334703 78.8257885,212.109428 81.860721,184.565341 C84.8956535,157.021255 87.9668666,132.687432 91.0463663,123.15804 C94.7822584,111.596863 101.529493,97.6936545 107.146095,86.9123562 C109.754964,81.9036084 112.598683,77.0674091 115.844944,72.4389406 Z" id="Leaf" fill="#69A1AC"></path>
                    <path d="M136.119193,207.530559 C143.226967,202.312314 150.920598,212.160698 144.488795,217.379745 C140.933142,220.264517 137.215914,219.238325 135.123216,216.834291 C133.764722,218.490225 132.493216,220.221665 131.271465,221.68413 C127.549102,226.140538 124.030905,230.70331 120.668529,235.372473 C113.683712,245.072544 107.69785,255.320462 101.439206,265.380988 C95.2627422,275.31018 89.1356659,285.290229 83.5374023,295.470986 C78.7948783,304.096555 72.4736964,314.243846 70.8500039,323.700018 C73.313576,303.645114 82.6617156,284.3688 93.7937194,266.688866 C104.835142,249.154171 117.506456,230.004338 134.602674,216.166341 C132.862698,213.607589 132.814396,209.955166 136.119193,207.530559 Z" id="Leaf" fill="#C1DEE2"></path>
                    <path d="M178.650015,102.626743 C178.881189,102.293304 180.385765,99.974335 179.628108,100.122538 C181.170725,99.8207908 177.506334,102.680114 181.35001,100.925646 C179.525006,102.649245 180.578275,104.888228 180.602633,107.208003 C180.642374,110.974288 180.012219,114.709688 179.302872,118.395163 C178.181992,124.220773 176.512184,129.88497 174.088487,135.303487 C168.805965,147.11167 159.835971,158.479204 149.186921,165.861593 C143.92978,169.506576 138.777548,170.747557 132.781776,172.42557 C128.994592,173.48568 128.694262,175.444733 126.684016,179.119771 C122.498834,186.774087 118.388186,194.400871 114.697227,202.313445 C110.289977,211.761891 106.011601,221.220752 101.97585,230.835526 C88.3801292,263.22238 77.3144735,296.775646 71.5031293,331.500018 C71.3608432,311.037052 76.0946164,289.961947 82.0658134,270.457336 C86.4154712,256.246719 92.0779088,242.548115 98.1174515,228.988186 C99.5809549,225.703134 101.798762,221.477443 102.420264,217.850603 C102.85544,215.30946 101.524978,212.865625 100.915819,210.188726 C98.5409797,199.764389 98.7109547,188.08577 100.796417,177.605695 C103.095798,166.049422 109.745504,160.685764 120.99434,159.048893 C125.108265,158.450142 130.337169,158.669588 134.109435,156.915487 C138.219262,155.005329 139.914628,148.726662 142.251626,144.696252 C148.528724,133.869718 155.986825,123.486411 164.550785,114.364158 C166.922064,111.83809 169.472155,109.507621 172.177515,107.347562 C173.883514,105.984685 177.487388,104.305623 178.650015,102.626743 Z" id="Leaf" fill="#89C5CC"></path>
                    <path d="M52.5144475,309.400017 L92.4355605,309.400017 C94.230486,309.400017 95.6855606,310.855092 95.6855606,312.650017 C95.6855606,312.808709 95.6739377,312.967188 95.6507851,313.124182 L92.5652455,334.046676 C91.624629,340.424829 86.1514852,345.150019 79.7043471,345.150019 L65.2456609,345.150019 C58.7985228,345.150019 53.3253789,340.424829 52.3847625,334.046676 L49.2992229,313.124182 C49.0373491,311.348462 50.2645636,309.696666 52.0402831,309.434793 C52.1972769,309.41164 52.3557557,309.400017 52.5144475,309.400017 Z" id="Base" fill="#C1DEE2"></path>
                </g>
                <g id="Top-Leaves" stroke-width="1" fill="none" transform="translate(307.749991, 3.000000)">
                    <path d="M137.449,88.9938575 C137.6037,82.2429571 134.83795,76.0211567 131.77645,70.1490564 C125.816599,58.7175058 122.835699,51.8782054 123.798999,38.3016547 C124.365799,30.3170542 125.043099,21.8807038 120.967599,14.6299534 C118.000349,9.35000307 111.775948,3.70150276 105.203148,4.65635281 C94.7985975,7.02625294 88.9901972,16.9400535 86.7632971,26.783654 C84.0033969,38.9841547 87.1636971,48.0867552 96.3767976,55.9043056 C101.568348,60.3080559 104.496598,64.8444061 105.912298,71.5511065 C107.045248,76.9142568 106.723498,83.0645571 108.661148,88.2223074 C111.558198,95.9326078 116.788749,100.641208 124.656349,102.073158 C121.817149,86.7903573 117.828749,70.9992565 111.433398,56.8305557 C110.859448,55.4285056 106.733898,49.4355053 108.450548,47.9216552 C110.341398,46.2550551 113.462049,55.8373556 113.437349,55.7775556 C115.250199,60.0357059 116.779649,64.4316561 118.249949,68.8458063 C118.242149,68.8471063 118.233699,68.8464563 118.225249,68.8477563 C119.742999,73.3802066 121.221749,77.9594568 122.634199,82.5686071 C123.182799,84.5023572 123.696299,86.4471573 124.152599,88.4179574 C124.822099,91.3098076 124.901399,98.925858 126.800049,101.187208 C127.206299,101.670808 127.619699,102.001658 128.036349,102.218108 C128.796849,105.407008 129.506649,108.603059 130.128699,111.805609 C131.75305,120.169809 132.6923,128.74916 131.6393,137.25441 C131.33185,139.73676 128.173499,148.370061 129.219999,150.574211 C131.13295,154.605511 132.2087,148.388911 132.6169,146.539661 C135.99235,131.22436 134.7723,116.845709 131.0894,101.851508 C134.47525,99.519308 137.38595,91.7290576 137.449,88.9938575" id="Leaf" fill="#F2F2F2" transform="translate(111.627600, 78.229092) rotate(-18.000000) translate(-111.627600, -78.229092) "></path>
                    <path d="M75.3080489,65.428516 C70.3670664,66.151265 65.7030023,72.39628 63.4016769,76.5601217 C60.5539588,81.7124179 58.5678886,87.5912001 57.0716362,93.2509902 C54.6065419,102.574228 54.2734211,112.922171 54.2429005,122.470754 C54.2391785,123.621398 53.9991082,137.676512 55.6423803,137.445935 C57.2703921,137.2176 56.2393924,122.628459 56.3782238,119.607413 C56.6737522,113.160222 56.2319484,106.801974 57.7442054,100.436625 C59.3096873,93.8455578 62.1801097,87.6341764 65.8072188,81.9411264 C66.2728436,81.2105296 67.2580625,78.4940546 68.3772741,79.1215083 C69.4719204,79.735135 66.4395902,83.3537383 66.0089524,84.0570546 C64.2309431,86.9615041 62.6870489,90.0371114 61.4085348,93.1968027 C59.0130422,99.1166928 57.7683985,105.311631 57.8108296,111.690433 C61.5711871,112.26781 64.8473097,110.065929 66.1087025,106.396876 C67.1985102,103.225599 67.30496,99.5367393 68.5429041,96.5381156 C69.395619,94.4730116 70.7519233,92.7192054 72.4104558,91.2363367 C76.7856911,87.3251209 81.3533549,86.3467564 82.657551,79.8554686 C83.6799901,74.7667025 82.4104088,64.3944692 75.3080489,65.428516" id="Leaf" fill="#F2F2F2" transform="translate(68.598292, 101.402656) scale(-1, 1) rotate(58.000000) translate(-68.598292, -101.402656) "></path>
                    <path d="M1.5286471,52.0000029 L2.32702746e-13,52.0000029 C0.107092352,50.0600128 0.246578881,48.1231789 0.574387741,46.2049174 C1.80321523,39.0145142 5.64547397,28.4536925 14.0724359,27.2866133 C14.3833199,27.2431176 15.526905,27.235813 16.9121773,27.3161638 C17.5687109,26.953257 18.3041354,26.7337863 19.0790054,26.683318 C26.2537399,26.1600416 34.2661899,31.8862003 37.7270307,37.8451108 C40.5169639,42.6495592 40.0469608,48.9584275 38.3237274,54.0626973 C37.1697795,57.4799318 34.6512849,62.3521139 30.4513424,62.399594 C25.1967344,62.459027 24.9433472,56.0342809 24.8417249,52.2783777 C24.7066742,47.2850052 24.0688606,42.9351035 20.0915512,39.5314822 C19.164582,38.7385988 18.1513676,38.0410075 17.2150385,37.259081 C15.7488695,36.035225 14.1285956,34.7821505 13.9397252,32.7574424 C13.6789838,29.9640889 15.2728493,29.4613982 17.7064358,29.9803583 C18.1212821,30.0686778 22.3001647,31.9237195 21.6814052,30.4574829 C21.4925349,30.0095768 20.802573,29.6546386 19.9317635,29.388684 C17.678356,29.1463034 14.991048,28.8650755 14.2181837,29.0330818 C5.88047552,30.8426356 2.63424491,42.2680588 1.77212683,49.5271918 C1.6745206,50.3491682 1.5965068,51.1739572 1.52864704,52.0000029 Z" id="Leaf-Me-Alone!" fill="#F2F2F2" transform="translate(19.859075, 44.525002) scale(-1, 1) translate(-19.859075, -44.525002) "></path>
                </g>
            </g>
        </g>
    </g>
</svg>